<?xml version="1.0" encoding="UTF-8"?>
<svg version="1.1" xmlns="http://www.w3.org/2000/svg" width="2000" height="2000">
<path d="M0 0 C5.47522952 0.00460645 10.9504474 -0.00249898 16.42567444 -0.00795984 C27.10010011 -0.01676984 37.77449737 -0.01496977 48.44892406 -0.00913456 C57.13819801 -0.00458459 65.82746409 -0.00401943 74.51673889 -0.00618219 C75.76190545 -0.00648866 77.007072 -0.00679513 78.28997087 -0.00711088 C80.82091459 -0.00775044 83.3518583 -0.00839887 85.88280201 -0.00905606 C108.84468057 -0.01457346 131.8065464 -0.00888947 154.76842225 0.00162913 C175.63920723 0.01111723 196.50996779 0.01026784 217.38075256 0.00070715 C240.93972324 -0.01004943 264.4986823 -0.01418567 288.05765533 -0.00806832 C290.57835897 -0.00743134 293.0990626 -0.0068026 295.61976624 -0.00618219 C296.8594228 -0.00587364 298.09907937 -0.00556509 299.37630129 -0.00524719 C308.03704949 -0.0035333 316.69778892 -0.00640687 325.35853577 -0.0111413 C335.93895197 -0.01679898 346.51933858 -0.01513247 357.09975147 -0.00457981 C362.47940508 0.00061205 367.85900967 0.00284718 373.23866272 -0.00387812 C404.18386617 -0.03935715 435.02998034 0.58482014 465.81825256 4.01144934 C466.96186752 4.13550146 466.96186752 4.13550146 468.12858582 4.26205969 C547.32116118 12.90699667 625.59300537 32.91917518 704.06825256 68.26144934 C704.74478882 68.56866919 705.42132507 68.87588903 706.11836243 69.19241858 C750.55289701 89.39954909 793.43396882 113.0910343 833.01161194 141.77414465 C835.20564746 143.36080947 837.40963319 144.93294452 839.61512756 146.50363684 C848.96723078 153.18202421 858.11688478 160.05567193 867.06825256 167.26144934 C867.70472717 167.77175695 868.34120178 168.28206457 868.9969635 168.80783606 C881.81111585 179.09230338 894.33960292 189.64351533 906.39637756 200.80832434 C908.62918029 202.8583245 910.89096961 204.85319513 913.19325256 206.82394934 C917.20831013 210.29755723 920.89347687 214.0723033 924.62294006 217.84738684 C926.75356702 219.95078533 928.92305679 221.93675179 931.19325256 223.88644934 C937.35830983 229.18318868 942.86438746 234.96927764 948.15419006 241.12863684 C950.37277084 243.6007697 952.70531926 245.92707111 955.06825256 248.26144934 C958.63908768 251.79458333 962.03376482 255.39518028 965.29872131 259.21066809 C967.30611279 261.53711516 969.37291894 263.8033762 971.44325256 266.07394934 C975.69340049 270.78839914 979.71577858 275.65612436 983.70643616 280.5905509 C985.26988668 282.50884695 986.84969324 284.41297799 988.43153381 286.31613684 C995.20656869 294.47300688 1001.83036897 302.68173402 1008.06825256 311.26144934 C1008.53521545 311.90098547 1009.00217834 312.5405216 1009.48329163 313.19943762 C1013.37461249 318.53231034 1017.23041387 323.88998188 1021.06825256 329.26144934 C1021.64800842 330.07210852 1022.22776428 330.8827677 1022.8250885 331.71799231 C1031.33153664 343.64535865 1039.40677058 355.77450356 1047.06825256 368.26144934 C1047.66065735 369.22462072 1047.66065735 369.22462072 1048.26502991 370.20725012 C1050.91487373 374.5303171 1053.50730866 378.88519261 1056.06825256 383.26144934 C1056.50041077 383.99959875 1056.93256897 384.73774817 1057.37782288 385.49826574 C1098.27970559 455.64254452 1128.23725696 530.9977997 1160.25575256 698.13644934 C1160.33465729 698.84066015 1160.41356201 699.54487097 1160.49485779 700.2704215 C1163.95038668 731.50430126 1164.36893805 762.80767506 1164.3297019 794.19319677 C1164.32509545 799.6684263 1164.33220088 805.14364417 1164.33766174 810.61887121 C1164.34647174 821.29329688 1164.34467167 831.96769414 1164.33883646 842.64212084 C1164.33428649 851.33139478 1164.33372133 860.02066087 1164.33588409 868.70993567 C1164.33634379 870.5776855 1164.33634379 870.5776855 1164.33681278 872.48316765 C1164.33745235 875.01411136 1164.33810077 877.54505507 1164.33875796 880.07599878 C1164.34427536 903.03787735 1164.33859137 925.99974317 1164.32807277 948.96161902 C1164.31858467 969.832404 1164.31943406 990.70316456 1164.32899475 1011.57394934 C1164.33975133 1035.13292002 1164.34388757 1058.69187907 1164.33777022 1082.25085211 C1164.33713325 1084.77155574 1164.3365045 1087.29225937 1164.33588409 1089.81296301 C1164.33557554 1091.05261958 1164.33526699 1092.29227614 1164.33494909 1093.56949806 C1164.3332352 1102.23024627 1164.33610878 1110.8909857 1164.3408432 1119.55173254 C1164.34650089 1130.13214875 1164.34483437 1140.71253535 1164.33428171 1151.29294825 C1164.32908985 1156.67260186 1164.32685472 1162.05220644 1164.33358002 1167.43185949 C1164.37041385 1199.57978305 1163.5298045 1231.53234721 1159.94325256 1263.51144934 C1159.83976501 1264.45038031 1159.73627747 1265.38931128 1159.62965393 1266.3566947 C1151.83378857 1336.28375017 1134.49047237 1405.03978884 1108.06825256 1470.26144934 C1107.66880432 1471.25563879 1107.26935608 1472.24982824 1106.85780334 1473.27414465 C1095.74720824 1500.76455123 1083.18400101 1528.05908687 1068.46717834 1553.81223059 C1067.00586519 1556.37067623 1065.56539543 1558.94014337 1064.12684631 1561.51144934 C1045.24311632 1595.10412392 1023.61126385 1626.7844948 1000.06825256 1657.26144934 C999.54312073 1657.94400793 999.01798889 1658.62656652 998.47694397 1659.32980871 C992.98316012 1666.46267304 987.31493518 1673.404754 981.41810608 1680.20871496 C978.29141965 1683.81709806 975.24947269 1687.47840073 972.25575256 1691.19894934 C969.25976436 1694.89130237 966.15421227 1698.29671822 962.73622131 1701.59738684 C960.97770307 1703.35178677 959.36934322 1705.18578498 957.75575256 1707.07394934 C954.99207227 1710.28478689 952.0820566 1713.28412099 949.06825256 1716.26144934 C946.07511144 1719.21841957 943.18446705 1722.19462425 940.44325256 1725.38644934 C935.14651322 1731.5515066 929.36042426 1737.05758423 923.20106506 1742.34738684 C920.7289322 1744.56596761 918.40263079 1746.89851603 916.06825256 1749.26144934 C912.53511857 1752.83228446 908.93452162 1756.22696159 905.11903381 1759.49191809 C902.79258674 1761.49930956 900.52632571 1763.56611572 898.25575256 1765.63644934 C894.01384406 1769.46059412 889.6627416 1773.11034389 885.22059631 1776.69894934 C882.87965376 1778.59165846 880.56576045 1780.51395109 878.25965881 1782.44894934 C868.58776753 1790.54213096 858.65275331 1798.16317722 848.43251038 1805.55002356 C846.1146394 1807.22787109 843.80541105 1808.91699331 841.49794006 1810.60910559 C812.33128957 1831.93389862 781.49141105 1850.82835633 749.64979553 1867.87668371 C747.2436446 1869.16736729 744.84488247 1870.47082471 742.44715881 1871.77707434 C671.74931984 1909.99814153 592.90843058 1934.47050024 466.19325256 1954.44894934 C465.48904175 1954.52785406 464.78483093 1954.60675879 464.0592804 1954.68805456 C432.82540064 1958.14358345 401.52202684 1958.56213482 370.13650513 1958.52289867 C364.6612756 1958.51829222 359.18605773 1958.52539765 353.71083069 1958.53085852 C343.03640502 1958.53966852 332.36200776 1958.53786845 321.68758106 1958.53203323 C312.99830712 1958.52748326 304.30904103 1958.5269181 295.61976624 1958.52908087 C293.7520164 1958.52954057 293.7520164 1958.52954057 291.84653425 1958.53000955 C289.31559054 1958.53064912 286.78464683 1958.53129755 284.25370312 1958.53195474 C261.29182456 1958.53747213 238.32995873 1958.53178814 215.36808288 1958.52126954 C194.4972979 1958.51178145 173.62653734 1958.51263083 152.75575256 1958.52219152 C129.19678188 1958.53294811 105.63782283 1958.53708435 82.07884979 1958.530967 C79.55814616 1958.53033002 77.03744253 1958.52970127 74.51673889 1958.52908087 C73.27708232 1958.52877232 72.03742576 1958.52846377 70.76020384 1958.52814586 C62.09945564 1958.52643197 53.4387162 1958.52930555 44.77796936 1958.53403997 C34.19755315 1958.53969766 23.61716655 1958.53803114 13.03675365 1958.52747849 C7.65710004 1958.52228662 2.27749546 1958.5200515 -3.10215759 1958.52677679 C-34.04736104 1958.56225583 -64.89347521 1957.93807853 -95.68174744 1954.51144934 C-96.44415741 1954.42874792 -97.20656738 1954.3460465 -97.99208069 1954.26083899 C-178.08827416 1945.51725991 -256.9335496 1925.03688662 -358.93174744 1878.26144934 C-359.6961615 1877.88681555 -360.46057556 1877.51218176 -361.24815369 1877.12619543 C-365.83036088 1874.87834011 -370.38820142 1872.58636985 -374.93174744 1870.26144934 C-375.6333197 1869.90437902 -376.33489197 1869.54730871 -377.057724 1869.17941809 C-398.74414453 1858.10307166 -419.52881987 1845.53617594 -439.93174744 1832.26144934 C-441.5830365 1831.1902384 -441.5830365 1831.1902384 -443.26768494 1830.09738684 C-446.17743469 1828.18200535 -449.0587151 1826.23152866 -451.93174744 1824.26144934 C-452.96936218 1823.55182043 -452.96936218 1823.55182043 -454.02793884 1822.82785559 C-467.31702075 1813.71406896 -480.19449339 1804.12863571 -492.93174744 1794.26144934 C-493.60995544 1793.73921789 -494.28816345 1793.21698645 -494.98692322 1792.67892981 C-502.12434691 1787.18220822 -509.07095148 1781.51168586 -515.87901306 1775.61130285 C-519.48739616 1772.48461643 -523.14869883 1769.44266946 -526.86924744 1766.44894934 C-530.56160047 1763.45296113 -533.96701632 1760.34740905 -537.26768494 1756.92941809 C-539.02208487 1755.17089984 -540.85608308 1753.56253999 -542.74424744 1751.94894934 C-545.95508499 1749.18526904 -548.95441909 1746.27525337 -551.93174744 1743.26144934 C-554.88871767 1740.26830821 -557.86492235 1737.37766382 -561.05674744 1734.63644934 C-567.2218047 1729.33970999 -572.72788233 1723.55362103 -578.01768494 1717.39426184 C-580.23626571 1714.92212897 -582.56881413 1712.59582756 -584.93174744 1710.26144934 C-588.50258255 1706.72831534 -591.89725969 1703.12771839 -595.16221619 1699.31223059 C-597.16960766 1696.98578351 -599.23641382 1694.71952248 -601.30674744 1692.44894934 C-605.55689536 1687.73449954 -609.57927345 1682.86677432 -613.56993103 1677.93234777 C-615.13338155 1676.01405172 -616.71318811 1674.10992069 -618.29502869 1672.20676184 C-625.07006357 1664.0498918 -631.69386384 1655.84116465 -637.93174744 1647.26144934 C-638.39871033 1646.6219132 -638.86567322 1645.98237707 -639.3467865 1645.32346106 C-643.23810737 1639.99058833 -647.09390874 1634.63291679 -650.93174744 1629.26144934 C-651.5115033 1628.45079016 -652.09125916 1627.64013098 -652.68858337 1626.80490637 C-671.61017009 1600.27389216 -688.34344002 1572.30964947 -703.69004822 1543.57297277 C-704.77369391 1541.55567875 -705.87532872 1539.5505689 -706.99034119 1537.55051184 C-714.00531502 1524.80396894 -719.94969035 1511.51527503 -725.93174744 1498.26144934 C-726.2099231 1497.64557959 -726.48809875 1497.02970984 -726.77470398 1496.39517736 C-735.07732746 1477.97863622 -742.57810401 1459.35621287 -749.22990417 1440.27261877 C-749.94839299 1438.21375061 -750.67207412 1436.15675403 -751.39610291 1434.09982824 C-779.03462166 1355.31746169 -794.14633707 1271.33351884 -794.06546021 1187.77362585 C-794.0673344 1185.89968687 -794.0696375 1184.02574828 -794.07232553 1182.15181029 C-794.07837508 1177.06351598 -794.07831812 1171.97523827 -794.07713115 1166.88694119 C-794.07692538 1161.37465926 -794.08246265 1155.86238241 -794.08718872 1150.3501029 C-794.09545887 1139.57169526 -794.09824194 1128.7932931 -794.0988011 1118.01488255 C-794.09927813 1109.24086062 -794.10134216 1100.46684048 -794.10450172 1091.69281912 C-794.11187066 1070.80034098 -794.11802758 1049.90786379 -794.11750317 1029.0153842 C-794.11748759 1028.34877767 -794.11747201 1027.68217114 -794.11745596 1026.99536441 C-794.11737287 1023.61766519 -794.11727383 1020.23996598 -794.11717125 1016.86226676 C-794.11715131 1016.19159378 -794.11713136 1015.5209208 -794.11711081 1014.8299244 C-794.11707037 1013.47366068 -794.11702857 1012.11739697 -794.11698542 1010.76113326 C-794.11637358 989.69140749 -794.12386601 968.62169784 -794.13755798 947.55197668 C-794.1529806 923.81001012 -794.16150782 900.06805162 -794.16059476 876.32607901 C-794.1602645 863.78214749 -794.16293603 851.23823416 -794.17377281 838.69430685 C-794.18294604 828.00846565 -794.18499786 817.32265089 -794.17826339 806.63680743 C-794.17503181 801.20067255 -794.17481716 795.76458816 -794.18361664 790.32845831 C-794.23019596 759.63897323 -793.55935236 729.10850215 -790.18174744 698.57394934 C-790.09904602 697.80904181 -790.0163446 697.04413427 -789.93113708 696.25604773 C-781.30616886 617.0455367 -761.28001467 538.75001199 -725.93174744 460.26144934 C-725.62452759 459.58491308 -725.31730774 458.90837683 -725.0007782 458.21133947 C-704.79364769 413.7768049 -681.10216247 370.89573308 -652.41905212 331.31808996 C-650.83238731 329.12405444 -649.26025225 326.92006871 -647.68955994 324.71457434 C-641.01117257 315.36247112 -634.13752485 306.21281712 -626.93174744 297.26144934 C-626.42143982 296.62497473 -625.9111322 295.98850012 -625.38536072 295.3327384 C-615.33312327 282.80793783 -605.02555349 270.54117056 -594.16221619 258.71066809 C-592.21271725 256.56997485 -590.31471439 254.39793872 -588.43174744 252.19894934 C-584.93201972 248.16270676 -581.13660551 244.45179105 -577.33799744 240.69894934 C-575.27725399 238.61144299 -573.33659118 236.48975711 -571.43174744 234.26144934 C-565.48299781 227.33290565 -558.92959112 221.03379958 -551.99424744 215.10519934 C-549.54250055 212.91348621 -547.24289171 210.6007783 -544.93174744 208.26144934 C-540.75344621 204.04516356 -536.45353771 200.10229319 -531.93174744 196.26144934 C-530.88046137 195.35839084 -529.82972709 194.4546898 -528.77940369 193.55051184 C-525.76480395 190.95681047 -522.7423229 188.37246981 -519.71788025 185.79025793 C-518.0529258 184.3651698 -516.39398662 182.93341456 -514.73643494 181.49973059 C-506.71074589 174.59092163 -498.36663943 168.15431981 -489.91856384 161.77219152 C-488.15480801 160.43106089 -486.40469469 159.07534819 -484.66221619 157.70676184 C-469.36747196 145.73013286 -453.19598289 134.87041746 -436.93174744 124.26144934 C-436.20229919 123.78530188 -435.47285095 123.30915442 -434.72129822 122.81857824 C-362.77173696 76.09007997 -282.6171292 42.56820337 -96.05674744 4.07394934 C-95.35253662 3.99504461 -94.64832581 3.91613989 -93.92277527 3.83484411 C-62.68889552 0.37931522 -31.38552172 -0.03923615 0 0 Z " fill="#8B5A3C" transform="translate(814.9317474365234,20.738550662994385)"/>
<path d="M0 0 C13.2 0 26.4 0 40 0 C40.33 9.9 40.66 19.8 41 30 C45.62 31.65 50.24 33.3 55 35 C77.1213438 45.82022251 92.90409312 63.82806141 101 87 C107.2857554 107.69061152 104.86201394 130.85285872 95 150 C94.34 150.99 93.68 151.98 93 153 C196.62 153 300.24 153 407 153 C407 176.1 407 199.2 407 223 C397.1 223 387.2 223 377 223 C378.299375 225.949375 379.59875 228.89875 380.9375 231.9375 C387.77080633 247.57859582 394.23453252 263.37486552 400.75230408 279.14915466 C404.31690398 287.77361236 407.90647248 296.3875652 411.5 305 C416.74572729 317.57649554 421.97191583 330.16097606 427.1875 342.75 C433.48296443 357.94461308 439.79755816 373.1311755 446.125 388.3125 C446.76163574 389.83999374 446.76163574 389.83999374 447.41113281 391.39834595 C450.9635103 399.92118982 454.51691045 408.44360718 458.07080078 416.96582031 C459.94335538 421.4562462 461.81562037 425.9467927 463.6875 430.4375 C463.986633 431.15511505 464.28576599 431.8727301 464.59396362 432.61209106 C469.47304588 444.31869944 474.3328035 456.03326113 479.1875 467.75 C487.90547364 488.79043146 496.66541003 509.81329492 505.4296875 530.83447266 C507.58426529 536.00244523 509.73819178 541.17068883 511.89161682 546.33914185 C512.75404013 548.40892936 513.61661894 550.47865209 514.47935486 552.54830933 C516.5922292 557.61759328 518.70246461 562.68794226 520.80688477 567.76074219 C524.31548819 576.21149986 527.83334201 584.6557108 531.4728241 593.05111694 C532.9080244 596.36318401 534.32996978 599.68086832 535.75131226 602.99890137 C536.40533411 604.51403368 537.06639909 606.02614973 537.73526001 607.53479004 C544.17091057 622.05207885 544.18838303 633.45929958 538.8125 648.4375 C532.90926524 663.13499652 523.32424566 674.58778171 508.90234375 681.48046875 C505.95466753 682.72601719 503.00613411 683.90350026 500 685 C499.03578125 685.35449219 498.0715625 685.70898438 497.078125 686.07421875 C490.24588127 688.12909408 483.46110996 688.14849982 476.39527893 688.14717102 C475.3388634 688.15084771 474.28244786 688.1545244 473.19401973 688.1583125 C469.66002185 688.16931072 466.12605342 688.17318664 462.59204102 688.17700195 C460.05542407 688.18326958 457.51880803 688.18991664 454.98219299 688.19691467 C447.37503214 688.21610989 439.76787648 688.22673838 432.16069761 688.23564246 C428.57098217 688.2400344 424.98126818 688.24539885 421.39155388 688.25063133 C409.44594028 688.26763823 397.50032756 688.28212998 385.55470371 688.28938007 C382.45875103 688.2912897 379.36279836 688.29321008 376.2668457 688.29516602 C375.49744134 688.29564976 374.72803698 688.2961335 373.93531733 688.2966319 C361.48552879 688.3049233 349.03583661 688.33024757 336.5860901 688.36274669 C323.7804888 688.39589999 310.97493633 688.41383629 298.16929191 688.41702431 C290.98902176 688.41918179 283.80889212 688.42781792 276.62866402 688.45348549 C269.8677089 688.47759968 263.1070491 688.4809666 256.34604454 688.47072411 C253.87425013 688.4702306 251.40244297 688.47649585 248.93068695 688.49028015 C226.43303039 688.60865215 207.00372284 686.34445087 190 670 C183.84667484 662.98305026 179.40835022 655.66460115 176 647 C175.47212891 645.79150391 175.47212891 645.79150391 174.93359375 644.55859375 C169.98884276 631.00707953 172.63451813 617.34986819 178.43612671 604.73965454 C179.48066777 602.46864598 180.48596124 600.18331532 181.48364258 597.89135742 C182.55262462 595.43665277 183.62372917 592.98314471 184.70597839 590.53425598 C188.37233806 582.23258933 191.77207728 573.83074743 195.14709473 565.40731812 C196.92311619 560.97783973 198.71212682 556.5536111 200.5 552.12890625 C200.86474426 551.22554031 201.22948853 550.32217438 201.60528564 549.39143372 C205.93800405 538.66619839 210.31256824 527.95806857 214.6875 517.25 C216.37895843 513.10939631 218.0703539 508.96876691 219.76171875 504.828125 C220.18813156 503.78428146 220.61454437 502.74043793 221.05387878 501.66496277 C226.04425396 489.44670435 231.02191044 477.22326773 236 465 C242.9929446 447.83044812 249.99225492 430.66351629 257 413.5 C277.2972363 363.78549618 277.2972363 363.78549618 297.49783325 314.03167725 C302.62025186 301.38159577 307.77129928 288.74328643 312.93017578 276.10803223 C314.23393156 272.91436113 315.53696562 269.72039641 316.83984375 266.52636719 C320.42822237 257.73159784 324.020035 248.93849817 327.6484375 240.16015625 C328.16910436 238.89671267 328.68962003 237.63320676 329.20996094 236.36962891 C330.11223567 234.18119235 331.01869999 231.99447517 331.93066406 229.81005859 C333.59701459 225.76092409 335.1135902 221.86322105 336.07421875 217.5859375 C337.7166719 211.22403038 341.74826918 207.38568051 347.25 204 C355.05638776 201.9182966 361.85743349 202.1906312 369 206 C369 201.05 369 196.1 369 191 C274.29 191 179.58 191 82 191 C82.33 440.15 82.66 689.3 83 946 C88.94 949.3 94.88 952.6 101 956 C105.51663704 959.2552339 109.76649801 962.43200228 114 966 C115.44826172 967.20269531 115.44826172 967.20269531 116.92578125 968.4296875 C124.47938289 974.96987371 124.47938289 974.96987371 126.55516911 979.07715702 C128.49154235 982.83648654 130.38018995 985.7801081 134 988 C142.42571412 990.3730847 151.68962354 989.51973425 160.34741211 989.37475586 C163.06831715 989.36633401 165.78908403 989.3761275 168.50997925 989.38528442 C174.36429675 989.39572977 180.21707654 989.36298491 186.07105827 989.30113029 C194.55419064 989.2120125 203.03633171 989.1944511 211.51987786 989.1948548 C225.31085189 989.19405029 239.10115283 989.14345446 252.8918457 989.05786133 C266.2394696 988.97519316 279.58701786 988.90321047 292.93481445 988.85473633 C294.16605945 988.85024727 294.16605945 988.85024727 295.42217808 988.84566753 C304.40235044 988.8135261 313.38251713 988.78780442 322.36273289 988.77168369 C323.15441212 988.77025993 323.94609136 988.76883617 324.76176088 988.76736926 C327.92878938 988.7618135 331.09581765 988.75641108 334.26284785 988.75191409 C343.49729129 988.73876442 352.73111729 988.70586514 361.96531302 988.63575501 C367.76817798 988.59242263 373.57095487 988.56618197 379.37396573 988.55282127 C382.71226409 988.54436464 386.04951411 988.52482767 389.38768578 988.48809624 C415.31506487 988.2103261 437.72379233 992.4311761 457 1011 C478.62277235 1033.39731942 480 1055.9081864 480 1087 C176.73 1087 -126.54 1087 -439 1087 C-439 1054.14681374 -438.21833162 1033.59555287 -416 1011 C-415.31292969 1010.30003906 -414.62585938 1009.60007812 -413.91796875 1008.87890625 C-404.2779325 999.70388103 -392.84274686 994.13692245 -380 991 C-379.38050161 990.83264627 -378.76100323 990.66529253 -378.12273216 990.49286747 C-371.83975987 988.91107256 -365.88056032 988.73494542 -359.42431641 988.78881836 C-358.28774912 988.79008162 -357.15118183 988.79134487 -355.98017311 988.79264641 C-352.18721681 988.79903629 -348.39446796 988.81956314 -344.6015625 988.83984375 C-341.8759598 988.84809388 -339.15035412 988.85313689 -336.42474365 988.858078 C-331.32096575 988.868357 -326.21722084 988.8823713 -321.11346579 988.90079743 C-311.08555686 988.93694754 -301.05775366 988.94827877 -291.02978516 988.95068359 C-289.4486281 988.95118826 -287.86747105 988.95170712 -286.28631401 988.95223999 C-283.89057871 988.95302733 -281.49484342 988.95379894 -279.0991081 988.95451117 C-270.07974152 988.95728551 -261.0603787 988.96274072 -252.04101562 988.97119141 C-251.21707503 988.9719549 -250.39313443 988.97271839 -249.54422593 988.97350502 C-236.18445826 988.9868275 -222.82491863 989.02962401 -209.46525216 989.08145154 C-195.73406726 989.13384705 -182.00319662 989.14805688 -168.27192497 989.12857723 C-159.80966282 989.11790529 -151.34859883 989.13784738 -142.88653421 989.19736224 C-137.08770268 989.23543254 -131.28958196 989.23691568 -125.49069166 989.20981759 C-122.14657973 989.19531161 -118.80624637 989.20241353 -115.46208954 989.24251366 C-101.82885467 990.17382028 -101.82885467 990.17382028 -89.46759033 985.78387451 C-87.1858593 983.28225987 -85.59298766 980.97034061 -84 978 C-82.3540349 976.31288577 -80.68762851 974.6454378 -79 973 C-78.42636719 972.36964844 -77.85273437 971.73929688 -77.26171875 971.08984375 C-72.66851271 966.18523391 -67.75733752 962.18275352 -62.25 958.375 C-61.6314917 957.94429199 -61.0129834 957.51358398 -60.37573242 957.06982422 C-54.11812181 952.85040678 -47.74087155 949.62970006 -41 946 C-40.67 697.18 -40.34 448.36 -40 192 C-134.71 192 -229.42 192 -327 192 C-327 196.95 -327 201.9 -327 207 C-325.02 206.01 -323.04 205.02 -321 204 C-314.16480523 202.80207927 -307.72784999 204.39811286 -302.0859375 208.3359375 C-298.51124392 211.45428722 -296.67597552 214.35326834 -295.359375 218.89453125 C-292.22221295 228.76258919 -288.01347524 238.21383765 -284 247.75 C-283.1063118 249.8826202 -282.21309166 252.01543659 -281.3203125 254.1484375 C-279.4679523 258.57302545 -277.61359524 262.99676839 -275.7578125 267.41992188 C-271.90020386 276.61857485 -268.06718219 285.82745055 -264.23388672 295.03625488 C-262.15708276 300.02465253 -260.07844256 305.01228492 -258 310 C-257.166658 311.99999639 -256.33332466 313.99999639 -255.5 316 C-254.88125 317.485 -254.88125 317.485 -254.25 319 C-226.33333333 386 -198.41666667 453 -170.5 520 C-170.08758057 520.98980362 -169.67516113 521.97960724 -169.25024414 522.99940491 C-168.41608834 525.00138494 -167.58194122 527.00336859 -166.74780273 529.00535583 C-164.67712397 533.97509089 -162.60629923 538.94476502 -160.53515625 543.91430664 C-156.6340835 553.27505875 -152.73454558 562.63644244 -148.83984375 571.99984741 C-147.00282366 576.41605938 -145.16501636 580.83194355 -143.32714844 585.24780273 C-142.45240583 587.35017805 -141.57804771 589.45271339 -140.70410156 591.55541992 C-139.49121229 594.47355246 -138.27699092 597.39112751 -137.0625 600.30859375 C-136.70921631 601.15957138 -136.35593262 602.01054901 -135.99194336 602.88731384 C-134.01674889 607.62804668 -131.96599095 612.31602268 -129.78062439 616.96417236 C-128.46621126 620.39209316 -128.44401107 623.68223691 -128.5625 627.3125 C-128.58558228 628.41706543 -128.58558228 628.41706543 -128.60913086 629.54394531 C-129.16320698 645.38948668 -135.96817484 659.62698438 -147 671 C-160.23947633 683.02878675 -176.28180712 688.322908 -193.97257996 688.26742554 C-195.04436613 688.27195665 -196.1161523 688.27648776 -197.22041684 688.28115618 C-200.79436856 688.29376716 -204.36816724 688.29218192 -207.94213867 688.29052734 C-210.51185298 688.29651467 -213.08156548 688.30332069 -215.65127563 688.31088257 C-221.89721052 688.3274478 -228.14310764 688.3329901 -234.38906267 688.33410732 C-239.4702551 688.33506 -244.55143516 688.33918124 -249.63262367 688.34550858 C-264.06230731 688.36310938 -278.49196129 688.37234936 -292.92165574 688.37084763 C-293.69846882 688.37076772 -294.4752819 688.3706878 -295.27563477 688.37060547 C-296.05340459 688.37052371 -296.83117442 688.37044195 -297.63251302 688.37035771 C-310.2290277 688.36954531 -322.82542267 688.3886743 -335.42190274 688.4168822 C-348.37898596 688.44566691 -361.3360109 688.45941941 -374.29312688 688.45769465 C-381.55824901 688.45703264 -388.82324566 688.46244167 -396.08833885 688.48405075 C-402.92482863 688.50425584 -409.76105015 688.50353196 -416.59755325 688.48901749 C-419.09921087 688.48693286 -421.60088519 688.49160945 -424.10251427 688.5037384 C-448.42777137 688.61398945 -448.42777137 688.61398945 -460 684 C-461.03238942 683.59547387 -461.03238942 683.59547387 -462.08563519 683.1827755 C-476.49299558 676.94205724 -487.48627001 665.35738058 -493.75 651.125 C-496.03395963 645.23042433 -498.10703349 639.27254526 -499 633 C-499.17909912 631.85180786 -499.17909912 631.85180786 -499.36181641 630.68041992 C-500.27019487 619.6758136 -495.03132235 610.14583059 -490.75 600.3125 C-489.88648679 598.28480558 -489.02545218 596.25605405 -488.16674805 594.22631836 C-486.36566736 589.97130648 -484.55602111 585.72008397 -482.74169922 581.47070312 C-478.74484535 572.07536573 -474.9080754 562.61501758 -471.06817627 553.15472412 C-468.97680615 548.00452316 -466.8766952 542.85788898 -464.77734375 537.7109375 C-464.37100708 536.71422028 -463.96467041 535.71750305 -463.54602051 534.69058228 C-459.66963468 525.18382127 -455.77489147 515.68463807 -451.875 506.1875 C-446.23942806 492.46264466 -440.61561423 478.73303361 -435 465 C-427.33621282 446.259211 -419.65602831 427.52519629 -411.96777344 408.79443359 C-409.9806158 403.95300622 -407.99412012 399.11130742 -406.0078125 394.26953125 C-405.67740967 393.46414917 -405.34700684 392.65876709 -405.0065918 391.82897949 C-404.00438383 389.38599072 -403.00218925 386.94299645 -402 384.5 C-394.65163334 366.58718193 -394.65163334 366.58718193 -391.05133057 357.81582642 C-382.93199632 338.03476811 -374.82562102 318.24846474 -366.73339844 298.45629883 C-363.02401108 289.38488283 -359.31046044 280.31521349 -355.5859375 271.25 C-355.23098206 270.38601089 -354.87602661 269.52202179 -354.51031494 268.6318512 C-354.1601532 267.77953415 -353.80999146 266.9272171 -353.44921875 266.04907227 C-347.56481409 251.72576208 -341.71002934 237.3940323 -336 223 C-345.57 223 -355.14 223 -365 223 C-365 199.9 -365 176.8 -365 153 C-262.04 153 -159.08 153 -53 153 C-54.98 148.05 -56.96 143.1 -59 138 C-66.08922624 115.79952836 -65.09009042 92.75338131 -54.41601562 71.87719727 C-43.92714329 52.62935509 -26.86050244 37.96386371 -6 31 C-4.35 30.67 -2.7 30.34 -1 30 C-0.67 20.1 -0.34 10.2 0 0 Z " fill="#FEFEFE" transform="translate(978,466)"/>
<path d="M0 0 C2.88606365 2.88606365 3.96951376 6.47231689 5.46484375 10.203125 C5.80968307 11.05137344 6.1545224 11.89962189 6.5098114 12.77357483 C7.260873 14.62254299 8.00963867 16.47244501 8.75640869 18.32315063 C10.36431736 22.30769141 11.98320861 26.28773812 13.60162354 30.26802063 C14.45026636 32.35527512 15.29836076 34.44275267 16.14593506 36.53044128 C20.20187601 46.51577569 24.31228974 56.47822509 28.43444824 66.43637085 C30.42534951 71.24598047 32.41398697 76.05652549 34.40234375 80.8671875 C34.79007965 81.80525742 35.17781555 82.74332733 35.57730103 83.70982361 C39.46239368 93.11288802 43.32801893 102.52389897 47.1875 111.9375 C47.5133609 112.73224731 47.8392218 113.52699463 48.17495728 114.3458252 C50.77394054 120.68509172 53.37145094 127.02496146 55.96887207 133.36486816 C58.24937296 138.93103597 60.53051846 144.49693905 62.8125 150.0625 C63.1386026 150.85789185 63.4647052 151.65328369 63.8006897 152.47277832 C69.70073219 166.86050904 75.63792531 181.2327649 81.58065796 195.60290527 C87.83480327 210.72846014 94.04754787 225.87050936 100.23184204 241.02474976 C104.41443097 251.27279377 108.61835258 261.51131006 112.87109375 271.73046875 C113.26744019 272.68335281 113.66378662 273.63623688 114.07214355 274.61799622 C115.97187884 279.1836669 117.87511899 283.74783098 119.78369141 288.30981445 C120.46134148 289.93567694 121.13891729 291.56157037 121.81640625 293.1875 C122.12589706 293.92385178 122.43538788 294.66020355 122.7542572 295.41886902 C124.08305816 298.6142587 125.15794019 301.63176077 126 305 C43.17 305 -39.66 305 -125 305 C-123.01376721 299.04130163 -120.97629783 293.29050511 -118.55078125 287.5234375 C-118.05670273 286.33729858 -118.05670273 286.33729858 -117.55264282 285.12719727 C-116.84454533 283.42804398 -116.13505456 281.72947075 -115.42428589 280.03143311 C-113.50281022 275.44037683 -111.59216337 270.84481071 -109.6796875 266.25 C-109.09147469 264.83803848 -109.09147469 264.83803848 -108.49137878 263.39755249 C-104.60743239 254.0700534 -100.76733022 244.72482306 -96.9375 235.375 C-96.27361826 233.75511958 -95.60971845 232.13524656 -94.94580078 230.51538086 C-93.29103184 226.47733839 -91.63699689 222.43899567 -89.9831543 218.40057373 C-87.05282746 211.24557716 -84.12086062 204.09125331 -81.1875 196.9375 C-80.86224335 196.14422302 -80.53698669 195.35094604 -80.20187378 194.53363037 C-74.25408694 180.03032603 -68.27140706 165.54153527 -62.28256226 151.05514526 C-56.50908483 137.08888782 -50.75791412 123.1137296 -45.02874756 109.12924194 C-39.19274741 94.88573922 -33.3177497 80.6585452 -27.43463135 66.43444824 C-20.41867678 49.46856171 -13.45588679 32.48126319 -6.52197266 15.48168945 C-6.15714783 14.58801163 -5.792323 13.6943338 -5.41644287 12.77357483 C-4.73447784 11.10290727 -4.05316684 9.43197254 -3.37261963 7.76072693 C-1.11236879 2.22473758 -1.11236879 2.22473758 0 0 Z " fill="#8B5A3C" transform="translate(662,742)"/>
<path d="M0 0 C0.66 0 1.32 0 2 0 C10.65866874 20.83937071 19.29720978 41.68653188 27.85058594 62.56936646 C33.37533383 76.05664355 38.93135992 89.53078977 44.5 103 C50.4136575 117.30521817 56.31521998 131.61524254 62.1875 145.9375 C62.51317963 146.73179413 62.83885925 147.52608826 63.17440796 148.3444519 C65.77357479 154.684176 68.37126404 161.02450526 70.96887207 167.36486816 C73.24937296 172.93103596 75.53049122 178.49695022 77.8125 184.0625 C78.13793793 184.85623016 78.46337585 185.64996033 78.79867554 186.46774292 C84.74159952 200.95916698 90.71915857 215.43618595 96.70333862 229.91061401 C103.10777714 245.40234118 109.48522633 260.90493922 115.83789062 276.41796875 C116.14692322 277.1722113 116.45595581 277.92645386 116.77435303 278.70355225 C117.36733392 280.15140426 117.95968368 281.59951495 118.55133057 283.0479126 C120.69523141 288.2879549 122.90478759 293.49822627 125.15673828 298.69287109 C126 301 126 301 126 304 C43.5 304 -39 304 -124 304 C-122.16924678 297.89748925 -120.50194194 292.462452 -118.05859375 286.6953125 C-117.63964592 285.69908875 -117.63964592 285.69908875 -117.2122345 284.68273926 C-116.60842989 283.24797974 -116.00242722 281.81414359 -115.39440918 280.38116455 C-113.70345029 276.39428515 -112.03062053 272.39979051 -110.35546875 268.40625 C-110.0008255 267.56188385 -109.64618225 266.7175177 -109.28079224 265.8475647 C-105.20601512 256.13309215 -101.22831191 246.37927163 -97.25 236.625 C-90.99412664 221.29759502 -84.7018977 205.98572401 -78.375 190.6875 C-72.50262093 176.48659731 -66.64197194 162.28107551 -60.8125 148.0625 C-60.4866391 147.26775269 -60.1607782 146.47300537 -59.82504272 145.6541748 C-57.54921106 140.10311808 -55.27446377 134.55161731 -53 129 C-50.39660671 122.64551617 -47.7926889 116.29124792 -45.1875 109.9375 C-44.86206207 109.14376984 -44.53662415 108.35003967 -44.20132446 107.53225708 C-38.25937001 93.04319715 -32.28243189 78.5686896 -26.29968262 64.09643555 C-20.49378098 50.05102792 -14.70492075 35.99875444 -8.9375 21.9375 C-8.59557617 21.10404053 -8.25365234 20.27058105 -7.90136719 19.41186523 C-6.94302398 17.07549541 -5.98507159 14.73896589 -5.02734375 12.40234375 C-4.74805527 11.72123032 -4.46876678 11.04011688 -4.18101501 10.33836365 C-2.77190252 6.89829695 -1.3745715 3.45401962 0 0 Z " fill="#8B5A3C" transform="translate(1334,743)"/>
<path d="M0 0 C13.86 0 27.72 0 42 0 C42 243.87 42 487.74 42 739 C28.14 739 14.28 739 0 739 C0 495.13 0 251.26 0 0 Z " fill="#8B5B3D" transform="translate(977,661)"/>
<path d="M0 0 C1.16144028 -0.0230294 1.16144028 -0.0230294 2.34634399 -0.04652405 C19.1553659 -0.31822772 34.8348178 -0.46720875 50.546875 6.30859375 C51.65409912 6.77410645 51.65409912 6.77410645 52.78369141 7.24902344 C61.71445621 11.10258855 69.22282246 15.86451055 76.546875 22.30859375 C77.39507813 22.97761719 78.24328125 23.64664062 79.1171875 24.3359375 C87.06746035 30.79074102 96.1395534 42.03460668 99.39917946 51.88392544 C101.2671943 54.47853647 101.2671943 54.47853647 103.74920344 54.77043736 C106.86161232 54.94886746 109.93998533 54.95775269 113.0574646 54.9209137 C114.86064823 54.92921382 114.86064823 54.92921382 116.7002598 54.93768162 C120.04376834 54.94811114 123.38586003 54.93609355 126.72922921 54.91482866 C130.33275239 54.89737325 133.93619375 54.90875785 137.53973389 54.9168396 C143.7881427 54.92705831 150.03632544 54.9194173 156.28470993 54.90017891 C165.3330077 54.8726976 174.38108643 54.87651926 183.42940791 54.88876473 C198.12760342 54.90817543 212.82572691 54.90820731 227.52392578 54.89331055 C228.40404121 54.89242441 229.28415665 54.89153828 230.19094224 54.89062529 C233.75623633 54.88699191 237.32153032 54.88327456 240.88682421 54.87945873 C250.67991914 54.86901421 260.47301496 54.86075692 270.26611328 54.85424805 C271.14212556 54.85365981 272.01813784 54.85307158 272.92069595 54.85246552 C287.55114112 54.84317107 302.18154326 54.84968765 316.81198084 54.86655849 C325.8308306 54.87612991 334.84944841 54.87104192 343.8682719 54.84679078 C350.05759465 54.83098597 356.24681898 54.82924061 362.43615489 54.83832402 C366.00237609 54.84303139 369.56827914 54.84125242 373.13445663 54.8216877 C377.01191184 54.80052669 380.88894952 54.81060518 384.76644897 54.82325745 C385.87825637 54.81208643 386.99006377 54.80091541 388.1355623 54.78940588 C398.95720327 54.87519077 408.84299779 57.28069813 417.44921875 64.0390625 C420.58892771 67.4360288 422.98099519 71.45977404 425.546875 75.30859375 C151.316875 75.30859375 -122.913125 75.30859375 -405.453125 75.30859375 C-400.83219797 66.06673968 -392.31628395 60.34474437 -383.04253674 56.24218845 C-377.85456056 54.89281217 -372.86816217 55.080636 -367.53034973 55.14451599 C-366.32016936 55.15071821 -365.10998898 55.15692042 -363.86313647 55.16331059 C-361.21042815 55.17822257 -358.55804175 55.19681318 -355.90543556 55.22159767 C-351.58884753 55.26179573 -347.27224063 55.28786664 -342.95553589 55.31182861 C-338.30541469 55.33831133 -333.65530994 55.365872 -329.00522482 55.39813602 C-317.47467119 55.47793432 -305.94428572 55.52637672 -294.41349792 55.55567932 C-293.16177631 55.5589525 -293.16177631 55.5589525 -291.88476739 55.56229179 C-286.75370946 55.57568409 -281.62265009 55.58844296 -276.49159013 55.60103185 C-268.56527052 55.62049053 -260.63895532 55.64081977 -252.71264648 55.66430664 C-251.38974524 55.66820614 -251.38974524 55.66820614 -250.04011872 55.67218442 C-235.75325731 55.71596841 -221.46722002 55.81394575 -207.18078653 55.93011486 C-192.50272104 56.04804175 -177.82540534 56.10106233 -163.14686412 56.09579045 C-154.09815562 56.09471068 -145.05271088 56.14488135 -136.00473925 56.26137126 C-129.8000417 56.33654171 -123.59717222 56.34907853 -117.39213298 56.31292098 C-113.81397653 56.29394996 -110.24149314 56.30222104 -106.66413307 56.38554573 C-92.78043781 57.28857361 -92.78043781 57.28857361 -80.25748229 52.63371015 C-76.65693636 48.64799314 -74.39730067 44.24675564 -72.35416257 39.31511796 C-64.67371365 22.21149528 -44.68665864 10.90159735 -27.92578125 4.5 C-18.59048744 1.29722766 -9.81223126 0.19050939 0 0 Z " fill="#8C5B3E" transform="translate(988.453125,1437.69140625)"/>
<path d="M0 0 C93.39 0 186.78 0 283 0 C287.57880435 9.1576087 287.57880435 9.1576087 285.8984375 14.890625 C283.6884681 20.0792488 280.07784486 23.52617815 275 26 C272.10865709 26.87398255 269.51816775 27.12797629 266.50366688 27.13701439 C265.15197193 27.1446262 265.15197193 27.1446262 263.77297002 27.15239179 C262.7868958 27.15288955 261.80082159 27.15338731 260.78486633 27.15390015 C259.73424222 27.1582824 258.6836181 27.16266465 257.60115689 27.1671797 C254.06914511 27.18056921 250.53715828 27.18674691 247.00512695 27.19287109 C244.47729886 27.20077188 241.94947189 27.20904082 239.42164612 27.21765137 C231.82810492 27.24160831 224.23456496 27.25679853 216.64099792 27.26971143 C214.49562088 27.2734248 212.35024448 27.2773979 210.20486808 27.2814641 C196.87682378 27.30670037 183.54877843 27.32874919 170.22071552 27.34119225 C167.13485523 27.34412184 164.04899498 27.34708352 160.96313477 27.35009766 C159.81270105 27.35121673 159.81270105 27.35121673 158.63902625 27.35235842 C146.21662675 27.36501032 133.79437044 27.39823269 121.37203787 27.43989949 C108.61289681 27.4823446 95.85382901 27.50589018 83.09461755 27.51111281 C75.93293308 27.51452384 68.77147245 27.5262426 61.60985756 27.55921555 C54.87190274 27.59018753 48.13440588 27.59561854 41.39636803 27.58383179 C38.92485475 27.58361081 36.45332353 27.59193581 33.98187256 27.60948563 C30.60412937 27.63216344 27.22780259 27.62388702 23.85005188 27.60800171 C22.87513127 27.6218838 21.90021066 27.63576588 20.89574701 27.65006864 C14.17734182 27.57237337 9.47251057 25.9318389 4 22 C0.61664901 18.47567606 -1.49520318 14.48469653 -3.0625 9.875 C-3 7 -3 7 0 0 Z " fill="#8C5B3D" transform="translate(1192,1086)"/>
<path d="M0 0 C93.39 0 186.78 0 283 0 C286.61764706 7.23529412 286.61764706 7.23529412 286 13 C283.91199046 19.01838045 279.58607708 22.91518238 274.16784459 26.06514996 C271.75754504 27.10455502 270.11294076 27.25156396 267.49808025 27.25447559 C266.59571689 27.26030779 265.69335353 27.26613998 264.76364583 27.27214891 C263.77620737 27.26836958 262.78876891 27.26459026 261.77140808 27.26069641 C260.71937283 27.26452196 259.66733759 27.26834751 258.58342248 27.27228898 C255.0466942 27.28263464 251.51012778 27.27862379 247.97338867 27.2746582 C245.44231516 27.27900385 242.91124296 27.2841865 240.38017273 27.29014587 C234.21142307 27.30216931 228.0427334 27.30468516 221.87397429 27.30234561 C216.85934556 27.30056321 211.84473006 27.30231042 206.83010292 27.30657005 C206.11662274 27.30716524 205.40314256 27.30776043 204.66804177 27.30837366 C203.21862202 27.3095854 201.76920228 27.31079954 200.31978253 27.31201603 C186.72237163 27.32289611 173.12498551 27.32072709 159.52757321 27.31463119 C147.09092827 27.30946373 134.65436171 27.3207121 122.21773227 27.33972941 C109.44729428 27.35910737 96.67689335 27.36736375 83.90644056 27.36360615 C76.73706663 27.36169377 69.56775938 27.3641851 62.39839745 27.37832069 C55.6555912 27.39148063 48.91296715 27.38897498 42.17015266 27.37590981 C39.69458844 27.37353972 37.21901325 27.37629411 34.74346161 27.38453293 C31.36530558 27.39496533 27.98767966 27.38692729 24.60954285 27.3742218 C23.62879656 27.38159609 22.64805026 27.38897037 21.63758439 27.39656812 C13.01213178 27.32827477 7.32422742 25.18368903 1 19 C-1.38785044 15.84330607 -2.87015532 12.90891276 -3.4375 8.9375 C-3 6 -3 6 0 0 Z " fill="#8B5A3D" transform="translate(521,1086)"/>
<path d="M0 0 C0 12.54 0 25.08 0 38 C12.87 38 25.74 38 39 38 C39 25.46 39 12.92 39 0 C49.75072139 4.30028856 56.9477135 13.24397977 61.62890625 23.60546875 C63.43654935 28.61156312 63.53640052 33.47010498 63.5 38.75 C63.49355469 39.72356445 63.48710938 40.69712891 63.48046875 41.70019531 C63.16752948 54.03247331 58.70810224 63.24654306 50 72 C40.66293036 79.67176911 33.39658928 81.41633031 21.50024414 81.48046875 C19.33516061 81.4997977 17.17395217 81.56184808 15.00976562 81.625 C6.25387116 81.75842363 0.03772217 80.59224128 -7 75 C-7.74886475 74.43506836 -8.49772949 73.87013672 -9.26928711 73.28808594 C-17.43821633 66.94465513 -22.76599036 57.01539155 -25 47 C-26.36263475 33.2346081 -23.69149511 21.97327187 -15 11 C-5.35049505 0 -5.35049505 0 0 0 Z " fill="#8C5B3D" transform="translate(980,538)"/>
</svg>
